<?xml version="1.0" encoding="utf-8"?>
<!-- Generator: Adobe Illustrator 19.2.0, SVG Export Plug-In . SVG Version: 6.00 Build 0)  -->
<svg version="1.1" id="Lager_1" xmlns="http://www.w3.org/2000/svg" xmlns:xlink="http://www.w3.org/1999/xlink" x="0px" y="0px"
	 viewBox="0 0 124.9 147.7" style="enable-background:new 0 0 124.9 147.7;" xml:space="preserve">
<style type="text/css">
	.st0{fill:#FFFFFF;}
</style>
<g>
	<path class="st0" d="M105.2,41.2H19.7C8.8,41.2,0,50.1,0,60.9v24.3c0,10.8,8.8,19.7,19.7,19.7h85.6c10.8,0,19.7-8.8,19.7-19.7V60.9
		C124.9,50.1,116.1,41.2,105.2,41.2z M40.3,85.4c-1.7,2.4-4.1,3.6-7.2,3.6c-1.9,0-3.5-0.4-4.6-1.1c-0.7-0.5-1.5-1.2-2.3-2.4v2.9h-6
		V57h6.1v11.1c0.8-1.1,1.6-1.9,2.5-2.5c1.1-0.7,2.5-1.1,4.2-1.1c3.1,0,5.5,1.1,7.2,3.3s2.6,5,2.6,8.5C42.9,80,42,83,40.3,85.4z
		 M68.3,78.4H51.4c0.1,2.3,0.9,4,2.4,4.9c0.9,0.6,2,0.9,3.3,0.9c1.4,0,2.5-0.4,3.4-1.1c0.5-0.4,0.9-0.9,1.2-1.6h6.2
		c-0.2,1.4-0.9,2.8-2.2,4.2c-2.1,2.3-5,3.4-8.7,3.4c-3.1,0-5.8-1-8.2-2.9c-2.4-1.9-3.5-5-3.5-9.3c0-4,1.1-7.1,3.2-9.2
		s4.9-3.2,8.3-3.2c2,0,3.8,0.4,5.5,1.1c1.6,0.7,3,1.9,4,3.4c1,1.4,1.6,3,1.8,4.8C68.2,74.9,68.3,76.4,68.3,78.4z M81.9,69.7h-3.8
		v12.3c0,1,0.1,1.5,0.4,1.8c0.2,0.2,1,0.4,2.2,0.4c0.2,0,0.4,0,0.6,0c0.2,0,0.4,0,0.6,0v4.5l-2.9,0.1c-2.9,0.1-4.8-0.4-5.9-1.5
		c-0.7-0.7-1-1.8-1-3.2V69.7h-3.2v-4.3h3.2v-6.5h6v6.5h3.8V69.7z M106.1,88.3h-6.6c-0.2-0.5-0.3-0.9-0.4-1.3
		c-0.1-0.4-0.1-0.9-0.2-1.4c-0.8,0.9-1.8,1.7-2.9,2.3c-1.3,0.8-2.8,1.1-4.5,1.1c-2.1,0-3.9-0.6-5.2-1.8c-1.4-1.2-2.1-2.9-2.1-5.1
		c0-2.9,1.1-4.9,3.3-6.2c1.2-0.7,3-1.2,5.4-1.5l2.1-0.3c1.1-0.1,1.9-0.3,2.4-0.5c0.9-0.4,1.3-0.9,1.3-1.7c0-1-0.3-1.6-1-2
		c-0.7-0.4-1.6-0.5-2.9-0.5c-1.5,0-2.5,0.4-3.1,1.1c-0.4,0.5-0.7,1.2-0.9,2.1H85c0.1-2,0.7-3.7,1.7-5c1.6-2,4.4-3.1,8.3-3.1
		c2.5,0,4.8,0.5,6.8,1.5c2,1,3,2.9,3,5.7v10.6c0,0.7,0,1.6,0,2.7c0,0.8,0.2,1.3,0.4,1.6c0.2,0.3,0.5,0.5,0.9,0.7V88.3z"/>
	<path class="st0" d="M95.9,78l-1.4,0.3c-1.3,0.2-2.2,0.5-2.8,0.8c-1,0.6-1.4,1.4-1.4,2.6c0,1,0.3,1.8,0.9,2.2s1.3,0.7,2.1,0.7
		c1.3,0,2.5-0.4,3.7-1.1s1.7-2.2,1.7-4.2V77c-0.4,0.2-0.8,0.4-1.2,0.6C97.2,77.8,96.6,77.9,95.9,78z"/>
	<path class="st0" d="M31.4,69.9c-2.2,0-3.7,1-4.6,3c-0.4,1.1-0.6,2.4-0.6,4.1c0,2,0.4,3.6,1.3,4.9s2.2,2,4.1,2
		c1.6,0,2.8-0.6,3.7-1.9c0.9-1.3,1.3-2.9,1.3-5c0-1.6-0.2-3-0.6-4.1C35.1,70.9,33.6,69.9,31.4,69.9z"/>
	<path class="st0" d="M56.8,69.5c-1.6,0-2.8,0.4-3.6,1.3c-0.9,0.9-1.4,2.1-1.6,3.6H62c-0.1-1.6-0.6-2.8-1.6-3.7
		C59.4,69.9,58.2,69.5,56.8,69.5z"/>
</g>
</svg>
