<?xml version="1.0" encoding="utf-8"?>
<!-- Generator: Adobe Illustrator 19.2.0, SVG Export Plug-In . SVG Version: 6.00 Build 0)  -->
<svg version="1.1" id="Lager_1" xmlns="http://www.w3.org/2000/svg" xmlns:xlink="http://www.w3.org/1999/xlink" x="0px" y="0px"
	 viewBox="0 0 185 119.5" style="enable-background:new 0 0 185 119.5;" xml:space="preserve">
<style type="text/css">
	.st0{fill:#FF8008;}
	.st1{fill:#FFC737;fill-opacity:0.5;}
</style>
<circle class="st0" cx="92.5" cy="87.7" r="31.7"/>
<path class="st0" d="M157.4,60.3l-35.9,35.9c-3.3,3.3-8.8,3.3-12.2,0l0,0c-3.3-3.3-3.3-8.8,0-12.2l35.9-35.9c3.3-3.3,8.8-3.3,12.2,0
	l0,0C160.8,51.4,160.8,56.9,157.4,60.3z"/>
<path class="st0" d="M159.9,1.5v41.1c0,0.8-0.7,1.5-1.5,1.5h-1.9c-0.8,0-1.5-0.7-1.5-1.5V1.5c0-0.8,0.7-1.5,1.5-1.5h1.9
	C159.3,0,159.9,0.7,159.9,1.5z"/>
<path class="st1" d="M151.1,22.3L151.1,22.3L151.1,22.3L151.1,22.3c0,0.2,0,0.5-0.1,0.8v0.1c-0.2,0.7-0.5,1.4-1.1,2
	c-0.1,0-0.1,0-0.1,0l-6.5,6.5c-0.4,0.4-0.8,0.7-1.3,0.9c-0.1,0-0.1,0-0.1,0c-0.2,0.1-0.4,0.1-0.6,0.2c-0.1,0-0.1,0-0.2,0
	c-1.3,0.3-2.8-0.1-3.8-1.1c-0.6-0.6-0.9-1.3-1.1-2.1l0,0c-0.1-0.2-0.1-0.5-0.1-0.8l0,0v-2.4h-16.2c-2.3,0-4.2-1.9-4.2-4.2l0,0
	c0-2.3,1.9-4.2,4.2-4.2h16.2v-2.4l0,0c0-1.1,0.4-2.2,1.2-3l0,0c1.6-1.6,4.3-1.6,5.9,0l6.5,6.5c0.1,0,0.1,0,0.1,0
	c0.5,0.6,0.9,1.3,1.1,2.1c0-0.1,0-0.1,0,0C151,21.4,151,21.7,151.1,22.3z"/>
</svg>
