<?xml version="1.0" encoding="utf-8"?>
<!-- Generator: Adobe Illustrator 19.2.0, SVG Export Plug-In . SVG Version: 6.00 Build 0)  -->
<svg version="1.1" id="Lager_1" xmlns="http://www.w3.org/2000/svg" xmlns:xlink="http://www.w3.org/1999/xlink" x="0px" y="0px"
	 viewBox="0 0 124.9 147.7" style="enable-background:new 0 0 124.9 147.7;" xml:space="preserve">
<style type="text/css">
	.st0{fill:#FFFFFF;}
</style>
<path class="st0" d="M36,36.2c-1.4-1.2-2.3-3.1-2.8-5.4c-1-5-4-10.4-7.7-14.1c-3.5-3.5-7.2-5.1-11.1-4.8c-3.3,0.2-6.6,1.9-9.6,4.8
	c-6.5,6.5-6.5,14.2,0,20.7C8.5,41,13.9,44,19,45c2.3,0.5,4.2,1.4,5.4,2.8l75.9,84.2c2.6,2.9,6.2,4.5,10.1,4.6c0.1,0,0.3,0,0.4,0
	c3.8,0,7.3-1.5,9.9-4.1c2.8-2.8,4.2-6.4,4.1-10.3c-0.1-3.9-1.8-7.5-4.7-10.1L36,36.2z"/>
<path class="st0" d="M4.7,112.1c-2.9,2.6-4.5,6.2-4.7,10.1c-0.1,3.9,1.4,7.6,4.1,10.3c2.7,2.7,6.2,4.1,9.9,4.1c0.1,0,0.3,0,0.4,0
	c3.9-0.1,7.5-1.8,10.1-4.6l33-36.4L42.1,78.4L4.7,112.1z"/>
<path class="st0" d="M100.5,47.8c1.2-1.4,3.1-2.3,5.4-2.8c5-1,10.4-4,14.1-7.7c6.5-6.5,6.5-14.2,0-20.7c-2.9-2.9-6.2-4.6-9.6-4.8
	c-4-0.3-7.7,1.3-11.1,4.8c-3.7,3.7-6.6,9.1-7.7,14.1c-0.5,2.3-1.4,4.2-2.8,5.4L68,55.1L82.3,68L100.5,47.8z"/>
</svg>
