<?xml version="1.0" encoding="utf-8"?>
<!-- Generator: Adobe Illustrator 19.2.0, SVG Export Plug-In . SVG Version: 6.00 Build 0)  -->
<svg version="1.1" id="Lager_1" xmlns="http://www.w3.org/2000/svg" xmlns:xlink="http://www.w3.org/1999/xlink" x="0px" y="0px"
	 viewBox="0 0 185 119.5" style="enable-background:new 0 0 185 119.5;" xml:space="preserve">
<style type="text/css">
	.st0{fill:#FF8008;}
</style>
<circle class="st0" cx="38.6" cy="38.6" r="38.6"/>
<path class="st0" d="M38.6,80.8C17.3,80.8,0,98,0,119.4h77.1C77.1,98,59.8,80.8,38.6,80.8z"/>
<g>
	<path class="st0" d="M163.3,45.6l-17.5-17.5c-1.7-1.7-4.4-1.7-6.1,0l-35.6,35.6c-1.7,1.7-1.7,4.4,0,6.1l17.5,17.5
		c1.7,1.7,4.4,1.7,6.1,0l35.6-35.6C165,50.1,165,47.3,163.3,45.6z M148.3,34.5l8.7,8.7c0.2,0.2,0.1,0.8-0.3,1.1s-0.9,0.5-1.1,0.3
		L147,36c-0.2-0.2-0.1-0.8,0.3-1.1C147.6,34.3,148.1,34.2,148.3,34.5z M116,75.6c-1.1-1.1-1.1-2.8,0-3.8c1.1-1.1,2.8-1.1,3.8,0
		s1.1,2.8,0,3.8C118.7,76.7,116.9,76.6,116,75.6z M132.1,78.4l-19-19L140,32.5l19,19L132.1,78.4z"/>
</g>
<path class="st0" d="M111,79.2c-4.1-4.1-10.9-4.1-15,0l-40.2,40.2h30L111,94.2C115.1,90.1,115.1,83.3,111,79.2z"/>
</svg>
