<?xml version="1.0" encoding="utf-8"?>
<!-- Generator: Adobe Illustrator 19.2.0, SVG Export Plug-In . SVG Version: 6.00 Build 0)  -->
<svg version="1.1" id="Lager_1" xmlns="http://www.w3.org/2000/svg" xmlns:xlink="http://www.w3.org/1999/xlink" x="0px" y="0px"
	 viewBox="0 0 185 119.5" style="enable-background:new 0 0 185 119.5;" xml:space="preserve">
<style type="text/css">
	.st0{fill:#FF8008;}
</style>
<circle class="st0" cx="38.6" cy="38.6" r="38.6"/>
<path class="st0" d="M38.6,80.8C17.3,80.8,0,98,0,119.4h77.1C77.1,98,59.8,80.8,38.6,80.8z"/>
<g>
	<path class="st0" d="M174.1,89.6V64.8c0-2.4-1.9-4.3-4.3-4.3h-50.3c-2.4,0-4.3,1.9-4.3,4.3v24.7c0,2.4,1.9,4.3,4.3,4.3h50.3
		C172.2,94,174.1,92,174.1,89.6z M171.4,71.1v12.3c0,0.3-0.5,0.6-1,0.6s-1-0.3-1-0.6V71.3c0-0.3,0.5-0.6,1-0.6
		C171,70.5,171.5,70.8,171.4,71.1z M119.5,77.3c0-1.6,1.2-2.8,2.7-2.7c1.6,0,2.8,1.2,2.7,2.7s-1.2,2.8-2.7,2.7
		C120.6,80,119.4,78.7,119.5,77.3z M128.9,90.7V63.8l38,0v26.9L128.9,90.7z"/>
</g>
<path class="st0" d="M111,79.2c-4.1-4.1-10.9-4.1-15,0l-40.2,40.2h30L111,94.2C115.1,90.1,115.1,83.3,111,79.2z"/>
</svg>
