<?xml version="1.0" encoding="utf-8"?>
<!-- Generator: Adobe Illustrator 19.2.0, SVG Export Plug-In . SVG Version: 6.00 Build 0)  -->
<svg version="1.1" id="Lager_1" xmlns="http://www.w3.org/2000/svg" xmlns:xlink="http://www.w3.org/1999/xlink" x="0px" y="0px"
	 viewBox="0 0 185 119.5" style="enable-background:new 0 0 185 119.5;" xml:space="preserve">
<style type="text/css">
	.st0{fill:#FF8008;}
</style>
<circle class="st0" cx="38.6" cy="38.6" r="38.6"/>
<path class="st0" d="M38.6,80.8C17.3,80.8,0,98,0,119.4h77.1C77.1,98,59.8,80.8,38.6,80.8z"/>
<g>
	<path class="st0" d="M109.6,33.2H84.8c-2.4,0-4.3,1.9-4.3,4.3V88c0,2.4,1.9,4.3,4.3,4.3h24.9c2.4,0,4.3-1.9,4.3-4.3V37.5
		C113.9,35.2,112,33.2,109.6,33.2z M91,35.9h12.3c0.3,0,0.6,0.5,0.6,1s-0.3,1-0.6,1H91.1c-0.3,0-0.6-0.5-0.6-1
		C90.4,36.3,90.7,35.9,91,35.9z M97.3,88.1c-1.5,0-2.7-1.2-2.7-2.7s1.2-2.7,2.7-2.7c1.5,0,2.7,1.2,2.7,2.7S98.7,88.1,97.3,88.1z
		 M110.7,78.7h-27V40.6h27V78.7z"/>
</g>
<path class="st0" d="M88.6,119.5l10.9-5.6c5.1-2.6,7.1-8.9,4.5-14c-2.6-5.1-8.9-7.1-14-4.5l-47.3,24.1H88.6z"/>
</svg>
