<?xml version="1.0" encoding="utf-8"?>
<!-- Generator: Adobe Illustrator 19.2.0, SVG Export Plug-In . SVG Version: 6.00 Build 0)  -->
<svg version="1.1" id="Lager_1" xmlns="http://www.w3.org/2000/svg" xmlns:xlink="http://www.w3.org/1999/xlink" x="0px" y="0px"
	 viewBox="0 0 185 119.5" style="enable-background:new 0 0 185 119.5;" xml:space="preserve">
<style type="text/css">
	.st0{fill:#FF8008;}
</style>
<circle class="st0" cx="38.6" cy="38.6" r="38.6"/>
<path class="st0" d="M38.6,80.8C17.3,80.8,0,98,0,119.4h77.1C77.1,98,59.8,80.8,38.6,80.8z"/>
<g>
	<path class="st0" d="M126.3,0l-24.8,0c-2.4,0-4.3,1.9-4.3,4.3v50.4c0,2.4,1.9,4.3,4.3,4.3h24.9c2.4,0,4.3-1.9,4.3-4.3V4.3
		C130.7,2,128.8,0,126.3,0z M107.8,2.7h12.3c0.3,0,0.6,0.5,0.6,1s-0.3,1-0.6,1h-12.2c-0.3,0-0.6-0.5-0.6-1
		C107.2,3.1,107.5,2.7,107.8,2.7z M114,54.9c-1.5,0-2.7-1.2-2.7-2.7c0-1.5,1.2-2.7,2.7-2.7c1.5,0,2.7,1.2,2.7,2.7
		C116.7,53.7,115.4,54.9,114,54.9z M127.5,45.4h-27V7.3h27V45.4z"/>
</g>
<path class="st0" d="M78.1,119.4l40.7-40.7c4-4,4-10.7,0-14.7c-4-4-10.7-4-14.7,0l-43.4,43.4c-3.2,3.2-3.9,8.1-1.9,12H78.1z"/>
</svg>
