<?xml version="1.0" encoding="utf-8"?>
<!-- Generator: Adobe Illustrator 19.2.0, SVG Export Plug-In . SVG Version: 6.00 Build 0)  -->
<svg version="1.1" id="Lager_1" xmlns="http://www.w3.org/2000/svg" xmlns:xlink="http://www.w3.org/1999/xlink" x="0px" y="0px"
	 viewBox="0 0 124.9 147.7" style="enable-background:new 0 0 124.9 147.7;" xml:space="preserve">
<style type="text/css">
	.st0{fill:#FFFFFF;}
</style>
<g>
	<g>
		<path class="st0" d="M107.9,28.7c-8.2-4-19.7-6-34-6c-16.2,0-34.4,5-48.5,13.3C18,40.3,12.1,45.2,7.8,50.6
			C3,56.8,0.6,63.2,0.6,69.8c0,8.4,5.1,15.8,14,20.8c-0.1,0.8-0.2,1.6-0.2,2.5c0,8,6.5,14.5,14.5,14.5c1.8,0,3.6-0.3,5.2-0.7
			c0.8,1.1,1.8,3.2,1.8,6.8c0,6.1-8.6,8.9-8.6,8.9l2.8,9.3c0.4-0.1,3.9-1.2,7.5-3.7c5.3-3.8,8.1-8.7,8.1-14.4
			c0-4.8-1.2-8.5-2.8-11.1c2.4-1.7,4.2-3.6,5.4-4.8c0.5,0,0.9,0,1.4,0c16.6,0,34.9-4.3,49-11.4c16.6-8.4,25.7-19.9,25.7-32.3
			C124.3,42.6,118.6,33.9,107.9,28.7z M28.8,97.9c-2.7,0-4.8-2.2-4.8-4.8c0-2.7,2.2-4.8,4.8-4.8c3.7,0,7.5,2.5,10.2,4.8
			C36.4,95.4,32.5,97.9,28.8,97.9z M94.2,77.6C81.4,84.1,64.8,88,49.6,88c-0.6,0-1.3,0-1.9,0c-3.2-3.4-10.3-9.4-18.9-9.4
			c-3.7,0-7,1.4-9.6,3.6c-5.9-3.2-9.1-7.5-9.1-12.3c0-8.8,7.3-18.1,20-25.5c12.7-7.5,29-11.9,43.7-11.9c27.1,0,40.8,7.3,40.8,21.6
			C114.7,65.5,101.9,73.7,94.2,77.6z"/>
	</g>
</g>
</svg>
