<?xml version="1.0" encoding="utf-8"?>
<!-- Generator: Adobe Illustrator 19.2.0, SVG Export Plug-In . SVG Version: 6.00 Build 0)  -->
<svg version="1.1" id="Lager_1" xmlns="http://www.w3.org/2000/svg" xmlns:xlink="http://www.w3.org/1999/xlink" x="0px" y="0px"
	 viewBox="0 0 185 119.5" style="enable-background:new 0 0 185 119.5;" xml:space="preserve">
<style type="text/css">
	.st0{fill:#FF8008;}
	.st1{fill:#FFC737;}
</style>
<circle class="st0" cx="38.6" cy="38.6" r="38.6"/>
<path class="st0" d="M38.6,80.8C17.3,80.8,0,98,0,119.4h77.1C77.1,98,59.8,80.8,38.6,80.8z"/>
<g>
	<path class="st0" d="M126.3,0h-24.8c-2.4,0-4.3,1.9-4.3,4.3v50.4c0,2.4,1.9,4.3,4.3,4.3h24.9c2.4,0,4.3-1.9,4.3-4.3V4.3
		C130.7,2,128.8,0,126.3,0z M107.8,2.7h12.3c0.3,0,0.6,0.5,0.6,1s-0.3,1-0.6,1h-12.2c-0.3,0-0.6-0.5-0.6-1
		C107.2,3.1,107.5,2.7,107.8,2.7z M114,54.9c-1.5,0-2.7-1.2-2.7-2.7s1.2-2.7,2.7-2.7s2.7,1.2,2.7,2.7S115.4,54.9,114,54.9z
		 M127.5,45.4h-27V7.3h27V45.4z"/>
</g>
<path class="st0" d="M78.1,119.4l40.7-40.7c4-4,4-10.7,0-14.7c-4-4-10.7-4-14.7,0l-43.4,43.4c-3.2,3.2-3.9,8.1-1.9,12
	C58.8,119.4,78.1,119.4,78.1,119.4z"/>
<path class="st1" d="M159.8,9.9c-2.6,0-7.7,0.1-12.7,1l-0.3-2.1c-0.1-1-0.6-1.9-1.4-2.5c-1.6-1.3-4.1-1-5.3,0.7l-5.1,6.6
	c0,0,0,0-0.1,0c-0.4,0.6-0.7,1.3-0.8,1.9l0,0.1c-0.1,0.3,0,0.6,0,0.7c0,0.3,0.1,0.5,0.2,0.7l0,0.1c0.2,0.6,0.6,1.3,1.2,1.7
	c0,0,0,0,0.1,0l6.6,5.1c0.4,0.3,0.8,0.5,1.3,0.7c0,0,0,0,0.1,0c0.2,0,0.4,0.1,0.6,0.1c0.1,0,0.1,0,0.1,0c1.2,0.1,2.5-0.4,3.3-1.4
	c0.4-0.6,0.7-1.3,0.8-2c0,0,0,0,0,0l-0.3-2.7c3-0.6,6.9-1,11.7-1c7.1,0,12.3,0.9,15.3,1.8c-3,0.9-8.2,1.8-15.3,1.8
	c-2.6,0-4.9-0.1-6.9-0.3l0,0c-2,0-3.7,1.6-3.8,3.6c-0.1,2,1.4,3.8,3.4,4l0,0c3,0.3,5.7,0.3,7.4,0.3c5.9,0,25.2-0.7,25.2-9.4
	S165.7,9.9,159.8,9.9z"/>
</svg>
