<?xml version="1.0" encoding="utf-8"?>
<!-- Generator: Adobe Illustrator 19.2.0, SVG Export Plug-In . SVG Version: 6.00 Build 0)  -->
<svg version="1.1" id="Lager_1" xmlns="http://www.w3.org/2000/svg" xmlns:xlink="http://www.w3.org/1999/xlink" x="0px" y="0px"
	 viewBox="0 0 185 119.5" style="enable-background:new 0 0 185 119.5;" xml:space="preserve">
<style type="text/css">
	.st0{fill:#FF8008;}
	.st1{fill:#FFC737;fill-opacity:0.5;}
</style>
<circle class="st0" cx="38.6" cy="38.6" r="38.6"/>
<path class="st0" d="M38.6,80.8C17.3,80.8,0,98,0,119.4h77.1C77.1,98,59.8,80.8,38.6,80.8z"/>
<g>
	<path class="st0" d="M109.6,0.7H84.8c-2.4,0-4.3,1.9-4.3,4.3v50.4c0,2.4,1.9,4.3,4.3,4.3h24.9c2.4,0,4.3-1.9,4.3-4.3V5
		C113.9,2.7,112,0.7,109.6,0.7z M91,3.4h12.3c0.3,0,0.6,0.5,0.6,1s-0.3,1-0.6,1H91.1c-0.3,0-0.6-0.5-0.6-1C90.4,3.8,90.7,3.4,91,3.4
		z M97.3,55.5c-1.5,0-2.7-1.2-2.7-2.7s1.2-2.7,2.7-2.7s2.7,1.2,2.7,2.7S98.7,55.5,97.3,55.5z M110.7,46.1h-27V8h27V46.1z"/>
</g>
<path class="st0" d="M77.6,119.5l25.8-41.9c3-4.8,1.5-11.3-3.4-14.3c-4.8-3-11.3-1.5-14.3,3.4L53.4,119c-0.1,0.2-0.2,0.4-0.3,0.6
	L77.6,119.5L77.6,119.5z"/>
<path class="st1" d="M142.6,24.4c2.6,0,7.7-0.1,12.7-1l0.3,2.1c0.1,1,0.6,1.9,1.4,2.5c1.6,1.3,4.1,1,5.3-0.7l5.1-6.6c0,0,0,0,0.1,0
	c0.4-0.6,0.7-1.3,0.8-1.9v-0.1c0.1-0.3,0-0.6,0-0.7c0-0.3-0.1-0.5-0.2-0.7v-0.1c-0.2-0.6-0.6-1.3-1.2-1.7c0,0,0,0-0.1,0l-6.6-5.1
	c-0.4-0.3-0.8-0.5-1.3-0.7c0,0,0,0-0.1,0c-0.2,0-0.4-0.1-0.6-0.1c-0.1,0-0.1,0-0.1,0c-1.2-0.1-2.5,0.4-3.3,1.4
	c-0.4,0.6-0.7,1.3-0.8,2l0,0l0.3,2.7c-3,0.6-6.9,1-11.7,1c-7.1,0-12.3-0.9-15.3-1.8c3-0.9,8.2-1.8,15.3-1.8c2.6,0,4.9,0.1,6.9,0.3
	l0,0c2,0,3.7-1.6,3.8-3.6s-1.4-3.8-3.4-4l0,0c-3-0.3-5.7-0.3-7.4-0.3c-5.9,0-25.2,0.7-25.2,9.4S136.7,24.4,142.6,24.4z"/>
</svg>
