<?xml version="1.0" encoding="utf-8"?>
<!-- Generator: Adobe Illustrator 19.2.0, SVG Export Plug-In . SVG Version: 6.00 Build 0)  -->
<svg version="1.1" id="Lager_1" xmlns="http://www.w3.org/2000/svg" xmlns:xlink="http://www.w3.org/1999/xlink" x="0px" y="0px"
	 viewBox="0 0 185 119.5" style="enable-background:new 0 0 185 119.5;" xml:space="preserve">
<style type="text/css">
	.st0{fill:#FF8008;}
</style>
<circle class="st0" cx="38.6" cy="38.6" r="38.6"/>
<path class="st0" d="M38.6,80.8C17.3,80.8,0,98,0,119.4h77.1C77.1,98,59.8,80.8,38.6,80.8z"/>
<path class="st0" d="M112.7,119.4H50.2c-5.8,0-10.6-4.8-10.6-10.6l0,0c0-5.8,4.8-10.6,10.6-10.6h62.5c5.8,0,10.6,4.8,10.6,10.6l0,0
	C123.3,114.6,118.5,119.4,112.7,119.4z"/>
<path class="st0" d="M183,112.1h-54.9c-1.1,0-2-0.9-2-2v-2.5c0-1.1,0.9-2,2-2H183c1.1,0,2,0.9,2,2v2.5
	C185,111.2,184.1,112.1,183,112.1z"/>
</svg>
