<?xml version="1.0" encoding="utf-8"?>
<!-- Generator: Adobe Illustrator 19.2.0, SVG Export Plug-In . SVG Version: 6.00 Build 0)  -->
<svg version="1.1" id="Lager_1" xmlns="http://www.w3.org/2000/svg" xmlns:xlink="http://www.w3.org/1999/xlink" x="0px" y="0px"
	 viewBox="0 0 185 119.5" style="enable-background:new 0 0 185 119.5;" xml:space="preserve">
<style type="text/css">
	.st0{fill:#FF8008;}
	.st1{fill:#FFC737;}
</style>
<circle class="st0" cx="38.6" cy="38.6" r="38.6"/>
<path class="st0" d="M38.6,80.8C17.3,80.8,0,98,0,119.4h77.1C77.1,98,59.8,80.8,38.6,80.8z"/>
<path class="st0" d="M112.7,119.4H50.2c-5.8,0-10.6-4.8-10.6-10.6l0,0c0-5.8,4.8-10.6,10.6-10.6h62.5c5.8,0,10.6,4.8,10.6,10.6l0,0
	C123.3,114.6,118.5,119.4,112.7,119.4z"/>
<g>
	<path class="st0" d="M185,115.2V90.5c0-2.4-1.9-4.3-4.3-4.3h-50.3c-2.4,0-4.3,1.9-4.3,4.3v24.8c0,2.4,1.9,4.3,4.3,4.3h50.3
		C183,119.5,185,117.6,185,115.2z M182.3,96.7V109c0,0.3-0.5,0.6-1,0.6s-1-0.3-1-0.6V96.8c0-0.3,0.5-0.6,1-0.6
		C181.9,96.1,182.3,96.4,182.3,96.7z M130.3,102.9c0-1.5,1.2-2.7,2.7-2.7s2.7,1.2,2.7,2.7s-1.2,2.7-2.7,2.7S130.3,104.3,130.3,102.9
		z M139.7,116.3V89.4h38v26.9H139.7z"/>
</g>
<g>
	<path class="st1" d="M158.8,45.2c-10.8,0-19.6,8.8-19.6,19.6h-2.4c-1.1,0-2.1,0.4-2.9,1.2h0c-1.6,1.6-1.6,4.3,0,5.9l6.5,6.5
		c0,0,0,0,0,0.1c0.6,0.6,1.3,0.9,2,1.1c0,0,0.1,0,0.1,0c0.3,0.1,0.6,0.1,0.8,0.1c0,0,0,0,0,0h0c0,0,0,0,0,0c0.3,0,0.6,0,0.8-0.1
		c0,0,0.1,0,0.1,0c0.7-0.2,1.5-0.5,2-1.1c0,0,0,0,0-0.1l6.5-6.5c0.4-0.4,0.6-0.8,0.9-1.3c0,0,0,0,0-0.1c0.1-0.2,0.1-0.4,0.2-0.6
		c0-0.1,0-0.1,0-0.2c0.3-1.3-0.1-2.8-1.1-3.8c-0.6-0.6-1.3-1-2.1-1.1c0,0,0,0,0,0c-0.3-0.1-0.5-0.1-0.8-0.1h-2.4
		c0-6.2,5-11.2,11.2-11.2s11.2,5,11.2,11.2h0c0,2.3,1.9,4.2,4.2,4.2h0c2.3,0,4.2-1.9,4.2-4.2C178.5,54,169.7,45.2,158.8,45.2z"/>
	
		<ellipse transform="matrix(0.9975 -7.124705e-02 7.124705e-02 0.9975 -1.9592 12.4998)" class="st1" cx="174.2" cy="33.7" rx="0" ry="0"/>
</g>
</svg>
