<?xml version="1.0" encoding="utf-8"?>
<!-- Generator: Adobe Illustrator 19.2.0, SVG Export Plug-In . SVG Version: 6.00 Build 0)  -->
<svg version="1.1" id="Lager_1" xmlns="http://www.w3.org/2000/svg" xmlns:xlink="http://www.w3.org/1999/xlink" x="0px" y="0px"
	 viewBox="0 0 185 119.5" style="enable-background:new 0 0 185 119.5;" xml:space="preserve">
<style type="text/css">
	.st0{fill:#FF8008;}
</style>
<circle class="st0" cx="92.5" cy="87.7" r="31.7"/>
<path class="st0" d="M157.4,60.3l-35.9,35.9c-3.3,3.3-8.8,3.3-12.2,0l0,0c-3.3-3.3-3.3-8.8,0-12.2l35.9-35.9c3.3-3.3,8.8-3.3,12.2,0
	l0,0C160.8,51.4,160.8,56.9,157.4,60.3z"/>
<path class="st0" d="M159.9,1.5v41.1c0,0.8-0.7,1.5-1.5,1.5h-1.9c-0.8,0-1.5-0.7-1.5-1.5V1.5c0-0.8,0.7-1.5,1.5-1.5l1.9,0
	C159.3,0,159.9,0.7,159.9,1.5z"/>
</svg>
