<?xml version="1.0" encoding="utf-8"?>
<!-- Generator: Adobe Illustrator 19.2.0, SVG Export Plug-In . SVG Version: 6.00 Build 0)  -->
<svg version="1.1" id="Lager_1" xmlns="http://www.w3.org/2000/svg" xmlns:xlink="http://www.w3.org/1999/xlink" x="0px" y="0px"
	 viewBox="0 0 185 119.5" style="enable-background:new 0 0 185 119.5;" xml:space="preserve">
<style type="text/css">
	.st0{fill:#FF8008;}
	.st1{fill:#FFC737;}
</style>
<circle class="st0" cx="38.6" cy="38.6" r="38.6"/>
<path class="st0" d="M38.6,80.8C17.3,80.8,0,98,0,119.4h77.1C77.1,98,59.8,80.8,38.6,80.8z"/>
<g>
	<path class="st0" d="M109.6,33.2H84.8c-2.4,0-4.3,1.9-4.3,4.3V88c0,2.4,1.9,4.3,4.3,4.3h24.9c2.4,0,4.3-1.9,4.3-4.3V37.5
		C113.9,35.2,112,33.2,109.6,33.2z M91,35.9h12.3c0.3,0,0.6,0.5,0.6,1s-0.3,1-0.6,1H91.1c-0.3,0-0.6-0.5-0.6-1
		C90.4,36.3,90.7,35.9,91,35.9z M97.3,88.1c-1.5,0-2.7-1.2-2.7-2.7s1.2-2.7,2.7-2.7s2.7,1.2,2.7,2.7S98.7,88.1,97.3,88.1z
		 M110.7,78.7h-27V40.6h27V78.7z"/>
</g>
<path class="st0" d="M88.6,119.5l10.9-5.6c5.1-2.6,7.1-8.9,4.5-14s-8.9-7.1-14-4.5l-47.3,24.1H88.6z"/>
<path class="st1" d="M130.5,45L130.5,45L130.5,45L130.5,45c0.2,0,0.5,0,0.8,0.1h0.1c0.7,0.2,1.4,0.5,2,1.1c0,0.1,0,0.1,0,0.1
	l6.5,6.5c0.4,0.4,0.7,0.8,0.9,1.3c0,0.1,0,0.1,0,0.1c0.1,0.2,0.1,0.4,0.2,0.6c0,0.1,0,0.1,0,0.2c0.3,1.3-0.1,2.8-1.1,3.8
	c-0.6,0.6-1.3,0.9-2.1,1.1l0,0c-0.2,0.1-0.5,0.1-0.8,0.1l0,0h-2.4v16.2c0,2.3-1.9,4.2-4.2,4.2l0,0c-2.3,0-4.2-1.9-4.2-4.2V60h-2.4
	l0,0c-1.1,0-2.2-0.4-3-1.2l0,0c-1.6-1.6-1.6-4.3,0-5.9l6.5-6.5c0-0.1,0-0.1,0-0.1c0.6-0.5,1.3-0.9,2.1-1.1c-0.1,0-0.1,0,0,0
	C129.6,45.1,129.9,45.1,130.5,45z"/>
</svg>
