<?xml version="1.0" encoding="utf-8"?>
<!-- Generator: Adobe Illustrator 19.2.0, SVG Export Plug-In . SVG Version: 6.00 Build 0)  -->
<svg version="1.1" id="Lager_1" xmlns="http://www.w3.org/2000/svg" xmlns:xlink="http://www.w3.org/1999/xlink" x="0px" y="0px"
	 viewBox="0 0 124.9 147.7" style="enable-background:new 0 0 124.9 147.7;" xml:space="preserve">
<style type="text/css">
	.st0{fill:#FFFFFF;}
</style>
<g>
	<path class="st0" d="M124.9,33.1h-9.1c-1.9-2.6-5-4.2-8.4-4.2h-3.5v-0.8c0-1.9-1.5-3.4-3.4-3.4s-3.4,1.5-3.4,3.4v0.8h-86
		c-5.8,0-10.6,4.7-10.6,10.5v6.3h80.4c1.9,0,3.4,1.5,3.4,3.4c0,1.9-1.5,3.4-3.4,3.4H0.6v3.4c0,3.4,1.7,6.4,4.2,8.3l-4.7,47.1
		c-0.6,5.7,3.7,10.4,9.5,10.4h16.9c5.8,0,11-4.7,11.6-10.4l2-19.8h17.2c7.5,0,14.1-6,14.8-13.4l1.1-11.8h34.3
		c5.8,0,10.4-4.7,10.4-10.5v-0.4h7.1V33.1z M65.3,77.5c-0.4,4-4.1,7.3-8.1,7.3H40.7l1.9-18.5h6.7c0.3,3.3,1.4,6.4,3.2,9.2
		c0.6,1,1.7,1.6,2.8,1.6c0.6,0,1.2-0.2,1.8-0.5c1.6-1,2-3.1,1-4.6c-1.1-1.7-1.8-3.6-2.1-5.6h10.4L65.3,77.5z"/>
</g>
</svg>
