<?xml version="1.0" encoding="utf-8"?>
<!-- Generator: Adobe Illustrator 19.2.0, SVG Export Plug-In . SVG Version: 6.00 Build 0)  -->
<svg version="1.1" id="Lager_1" xmlns="http://www.w3.org/2000/svg" xmlns:xlink="http://www.w3.org/1999/xlink" x="0px" y="0px"
	 viewBox="0 0 185 119.5" style="enable-background:new 0 0 185 119.5;" xml:space="preserve">
<style type="text/css">
	.st0{fill:#FF8008;}
	.st1{fill:#FFC737;fill-opacity:0.5;}
</style>
<circle class="st0" cx="38.6" cy="38.6" r="38.6"/>
<path class="st0" d="M38.6,80.8C17.3,80.8,0,98,0,119.4h77.1C77.1,98,59.8,80.8,38.6,80.8z"/>
<path class="st0" d="M85.7,119.4H23.2c-5.8,0-10.6-4.8-10.6-10.6l0,0c0-5.8,4.8-10.6,10.6-10.6h62.5c5.8,0,10.6,4.8,10.6,10.6l0,0
	C96.3,114.6,91.5,119.4,85.7,119.4z"/>
<g>
	<path class="st0" d="M157.6,115.2V90.5c0-2.4-1.9-4.3-4.3-4.3H103c-2.4,0-4.3,1.9-4.3,4.3v24.8c0,2.4,1.9,4.3,4.3,4.3h50.3
		C155.7,119.5,157.6,117.6,157.6,115.2z M155,96.7V109c0,0.3-0.5,0.6-1,0.6s-1-0.3-1-0.6V96.8c0-0.3,0.5-0.6,1-0.6
		C154.5,96.1,155,96.4,155,96.7z M103,102.9c0-1.5,1.2-2.7,2.7-2.7s2.7,1.2,2.7,2.7s-1.2,2.7-2.7,2.7S103,104.3,103,102.9z
		 M112.3,116.3V89.4h38v26.9H112.3z"/>
</g>
<path class="st1" d="M145.9,68.2L145.9,68.2L145.9,68.2L145.9,68.2c0,0.2,0,0.5-0.1,0.8v0.1c-0.2,0.7-0.5,1.4-1.1,2
	c-0.1,0-0.1,0-0.1,0l-6.5,6.5c-0.4,0.4-0.8,0.7-1.3,0.9c-0.1,0-0.1,0-0.1,0c-0.2,0.1-0.4,0.1-0.6,0.2c-0.1,0-0.1,0-0.2,0
	c-1.3,0.3-2.8-0.1-3.8-1.1c-0.6-0.6-0.9-1.3-1.1-2.1l0,0c-0.1-0.2-0.1-0.5-0.1-0.8l0,0v-2.4h-16.2c-2.3,0-4.2-1.9-4.2-4.2l0,0
	c0-2.3,1.9-4.2,4.2-4.2h16.2v-2.4l0,0c0-1.1,0.4-2.2,1.2-3l0,0c1.6-1.6,4.3-1.6,5.9,0l6.5,6.5c0.1,0,0.1,0,0.1,0
	c0.5,0.6,0.9,1.3,1.1,2.1l0,0C145.8,67.4,145.8,67.7,145.9,68.2z"/>
</svg>
