<?xml version="1.0" encoding="utf-8"?>
<!-- Generator: Adobe Illustrator 19.2.0, SVG Export Plug-In . SVG Version: 6.00 Build 0)  -->
<svg version="1.1" id="Lager_1" xmlns="http://www.w3.org/2000/svg" xmlns:xlink="http://www.w3.org/1999/xlink" x="0px" y="0px"
	 viewBox="0 0 185 119.5" style="enable-background:new 0 0 185 119.5;" xml:space="preserve">
<style type="text/css">
	.st0{fill:#FF8008;}
</style>
<circle class="st0" cx="38.6" cy="38.6" r="38.6"/>
<path class="st0" d="M38.6,80.8C17.3,80.8,0,98,0,119.4h77.1C77.1,98,59.8,80.8,38.6,80.8z"/>
<path class="st0" d="M85.7,119.4H23.2c-5.8,0-10.6-4.8-10.6-10.6l0,0c0-5.8,4.8-10.6,10.6-10.6h62.5c5.8,0,10.6,4.8,10.6,10.6l0,0
	C96.3,114.6,91.5,119.4,85.7,119.4z"/>
<g>
	<path class="st0" d="M157.6,115.2V90.5c0-2.4-1.9-4.3-4.3-4.3H103c-2.4,0-4.3,1.9-4.3,4.3v24.8c0,2.4,1.9,4.3,4.3,4.3h50.3
		C155.7,119.5,157.6,117.6,157.6,115.2z M155,96.7V109c0,0.3-0.5,0.6-1,0.6s-1-0.3-1-0.6V96.8c0-0.3,0.5-0.6,1-0.6
		C154.5,96.1,155,96.4,155,96.7z M103,102.9c0-1.5,1.2-2.7,2.7-2.7c1.5,0,2.7,1.2,2.7,2.7c0,1.5-1.2,2.7-2.7,2.7
		C104.2,105.6,103,104.3,103,102.9z M112.3,116.3V89.4h38v26.9H112.3z"/>
</g>
</svg>
