<?xml version="1.0" encoding="utf-8"?>
<!-- Generator: Adobe Illustrator 19.2.0, SVG Export Plug-In . SVG Version: 6.00 Build 0)  -->
<svg version="1.1" id="Lager_1" xmlns="http://www.w3.org/2000/svg" xmlns:xlink="http://www.w3.org/1999/xlink" x="0px" y="0px"
	 viewBox="0 0 185 119.5" style="enable-background:new 0 0 185 119.5;" xml:space="preserve">
<style type="text/css">
	.st0{fill:#FF8008;}
	.st1{fill:#FFC737;fill-opacity:0.5;}
	.st2{fill:#FF8008;fill-opacity:0.5;}
</style>
<circle class="st0" cx="92.5" cy="87.7" r="31.7"/>
<path class="st0" d="M118.1,33.9V60c0,0.5-0.7,1-1.5,1h-1.9c-0.8,0-1.5-0.4-1.5-1V33.9c0-0.5,0.7-1,1.5-1h1.9
	C117.4,33,118.1,33.4,118.1,33.9z"/>
<path class="st0" d="M67.7,81.3L67.7,81.3c-3.6-3.2-3.9-8.8-0.7-12.4l37.9-42.4c3.2-3.6,8.8-3.9,12.4-0.7l0,0
	c3.6,3.2,3.9,8.8,0.7,12.4L80.1,80.6C76.9,84.2,71.3,84.5,67.7,81.3z"/>
<path class="st0" d="M124.2,85.9V71.8c0-4.9-3.9-9-8.6-9s-8.6,4.1-8.6,9v14.1H124.2z"/>
<path class="st1" d="M135.4,69.7L135.4,69.7L135.4,69.7L135.4,69.7c-0.2,0-0.5,0-0.8-0.1h-0.1c-0.7-0.2-1.4-0.5-2-1.1
	c0-0.1,0-0.1,0-0.1l-6.5-6.5c-0.4-0.4-0.7-0.8-0.9-1.3c0-0.1,0-0.1,0-0.1c-0.1-0.2-0.1-0.4-0.2-0.6c0-0.1,0-0.1,0-0.2
	c-0.3-1.3,0.1-2.8,1.1-3.8c0.6-0.6,1.3-0.9,2.1-1.1l0,0c0.2-0.1,0.5-0.1,0.8-0.1l0,0h2.4V38.5c0-2.3,1.9-4.2,4.2-4.2l0,0
	c2.3,0,4.2,1.9,4.2,4.2v16.2h2.4l0,0c1.1,0,2.2,0.4,3,1.2l0,0c1.6,1.6,1.6,4.3,0,5.9l-6.5,6.5c0,0.1,0,0.1,0,0.1
	c-0.6,0.5-1.3,0.9-2.1,1.1c0.1,0,0.1,0,0,0C136.3,69.6,136,69.6,135.4,69.7z"/>
<path class="st2" d="M115.6,20.7L115.6,20.7c-1.4,0-2.6-1.2-2.6-2.6V9.4c0-1.4,1.2-2.6,2.6-2.6l0,0c1.4,0,2.6,1.2,2.6,2.6v8.6
	C118.2,19.5,117,20.7,115.6,20.7z"/>
<path class="st2" d="M120.1,22.8L120.1,22.8c-1-1-1-2.7,0-3.7l6.1-6.1c1-1,2.7-1,3.7,0v0c1,1,1,2.7,0,3.7l-6.1,6.1
	C122.8,23.9,121.1,23.9,120.1,22.8z"/>
<path class="st2" d="M122.9,27.5L122.9,27.5c0-1.4,1.2-2.6,2.6-2.6h8.6c1.4,0,2.6,1.2,2.6,2.6v0c0,1.4-1.2,2.6-2.6,2.6h-8.6
	C124.1,30.1,122.9,28.9,122.9,27.5z"/>
</svg>
