<?xml version="1.0" encoding="utf-8"?>
<!-- Generator: Adobe Illustrator 19.2.0, SVG Export Plug-In . SVG Version: 6.00 Build 0)  -->
<svg version="1.1" id="Lager_1" xmlns="http://www.w3.org/2000/svg" xmlns:xlink="http://www.w3.org/1999/xlink" x="0px" y="0px"
	 viewBox="0 0 185 119.5" style="enable-background:new 0 0 185 119.5;" xml:space="preserve">
<style type="text/css">
	.st0{fill:#FF8008;}
	.st1{fill:#FFC737;}
</style>
<circle class="st0" cx="92.5" cy="87.7" r="31.7"/>
<path class="st0" d="M118,17.1v26.1c0,0.5-0.7,1-1.5,1h-1.9c-0.8,0-1.5-0.4-1.5-1V17.1c0-0.5,0.7-1,1.5-1h1.9
	C117.3,16.1,118,16.6,118,17.1z"/>
<path class="st0" d="M124.2,86.8V54.9c0-4.9-3.9-9-8.6-9s-8.6,4.1-8.6,9v31.9H124.2z"/>
<path class="st0" d="M69.5,84.6L69.5,84.6c-4.5-1.7-6.8-6.8-5.1-11.3l22.9-61c1.7-4.5,6.8-6.8,11.3-5.1l0,0
	c4.5,1.7,6.8,6.8,5.1,11.3l-22.9,61C79.1,84,74.1,86.3,69.5,84.6z"/>
<path class="st1" d="M135.4,43.9L135.4,43.9L135.4,43.9L135.4,43.9c-0.2,0-0.5,0-0.8-0.1h-0.1c-0.7-0.2-1.4-0.5-2-1.1
	c0-0.1,0-0.1,0-0.1l-6.5-6.5c-0.4-0.4-0.7-0.8-0.9-1.3c0-0.1,0-0.1,0-0.1c-0.1-0.2-0.1-0.4-0.2-0.6c0-0.1,0-0.1,0-0.2
	c-0.3-1.3,0.1-2.8,1.1-3.8c0.6-0.6,1.3-0.9,2.1-1.1l0,0c0.2-0.1,0.5-0.1,0.8-0.1l0,0h2.4V12.7c0-2.3,1.9-4.2,4.2-4.2l0,0
	c2.3,0,4.2,1.9,4.2,4.2v16.2h2.4l0,0c1.1,0,2.2,0.4,3,1.2l0,0c1.6,1.6,1.6,4.3,0,5.9l-6.5,6.5c0,0.1,0,0.1,0,0.1
	c-0.6,0.5-1.3,0.9-2.1,1.1c0.1,0,0.1,0,0,0C136.3,43.8,136,43.8,135.4,43.9z"/>
</svg>
