<?xml version="1.0" encoding="utf-8"?>
<!-- Generator: Adobe Illustrator 19.2.0, SVG Export Plug-In . SVG Version: 6.00 Build 0)  -->
<svg version="1.1" id="Lager_1" xmlns="http://www.w3.org/2000/svg" xmlns:xlink="http://www.w3.org/1999/xlink" x="0px" y="0px"
	 viewBox="0 0 185 119.5" style="enable-background:new 0 0 185 119.5;" xml:space="preserve">
<style type="text/css">
	.st0{fill:#FF8008;}
</style>
<circle class="st0" cx="92.5" cy="87.7" r="31.7"/>
<path class="st0" d="M118.1,33.9V60c0,0.5-0.7,1-1.5,1h-1.9c-0.8,0-1.5-0.4-1.5-1V33.9c0-0.5,0.7-1,1.5-1h1.9
	C117.4,33,118.1,33.4,118.1,33.9z"/>
<path class="st0" d="M67.7,81.3L67.7,81.3c-3.6-3.2-3.9-8.8-0.7-12.4l37.9-42.4c3.2-3.6,8.8-3.9,12.4-0.7l0,0
	c3.6,3.2,3.9,8.8,0.7,12.4L80.1,80.6C76.9,84.2,71.3,84.5,67.7,81.3z"/>
<path class="st0" d="M124.2,85.9V71.8c0-4.9-3.9-9-8.6-9c-4.7,0-8.6,4.1-8.6,9v14.1H124.2z"/>
</svg>
