<?xml version="1.0" encoding="utf-8"?>
<!-- Generator: Adobe Illustrator 19.2.0, SVG Export Plug-In . SVG Version: 6.00 Build 0)  -->
<svg version="1.1" id="Capa_1" xmlns="http://www.w3.org/2000/svg" xmlns:xlink="http://www.w3.org/1999/xlink" x="0px" y="0px"
	 viewBox="0 0 486.9 486.9" style="enable-background:new 0 0 486.9 486.9;" xml:space="preserve">
<style type="text/css">
	.st0{fill:#FFFFFF;}
</style>
<g id="Settings">
	<g>
		<path class="st0" d="M485.3,216.9c-0.8-6.8-8.7-12-15.6-12c-22.3,0-42-13.1-50.3-33.3c-8.5-20.7-3-44.9,13.6-60.1
			c5.2-4.8,5.9-12.8,1.5-18.3c-11.4-14.5-24.4-27.5-38.5-38.9c-5.5-4.4-13.7-3.8-18.5,1.5c-14.5,16-40.5,22-60.6,13.6
			c-20.9-8.8-34.1-30-32.8-52.8c0.4-7.1-4.8-13.4-11.9-14.2c-18.2-2.1-36.5-2.2-54.7-0.1c-7,0.8-12.3,6.8-12,13.9
			c0.8,22.5-12.6,43.4-33.3,51.8c-19.9,8.1-45.7,2.2-60.2-13.7c-4.8-5.2-12.8-5.9-18.3-1.5C79.1,64.3,65.9,77.4,54.4,91.7
			c-4.5,5.6-3.8,13.7,1.5,18.5c16.9,15.3,22.4,39.7,13.6,60.6c-8.4,20-29.1,32.8-52.9,32.8c-7.7-0.2-13.2,4.9-14,11.9
			c-2.1,18.3-2.2,36.9-0.1,55.3c0.8,6.9,9,11.9,15.9,11.9c21.2-0.5,41.5,12.6,50,33.3c8.5,20.7,3,44.8-13.6,60.1
			c-5.2,4.8-5.9,12.8-1.5,18.3c11.3,14.4,24.2,27.5,38.4,38.9c5.6,4.5,13.7,3.9,18.5-1.5c14.5-16.1,40.6-22,60.6-13.6
			c21,8.8,34.2,30,32.9,52.7c-0.4,7.2,4.8,13.4,11.9,14.2c9.3,1.1,18.6,1.6,28,1.6c8.9,0,17.8-0.5,26.7-1.5c7-0.8,12.3-6.8,12-13.9
			c-0.8-22.5,12.6-43.3,33.2-51.8c20-8.2,45.7-2.2,60.2,13.7c4.8,5.2,12.7,5.9,18.3,1.5c14.5-11.4,27.8-24.5,39.3-38.9
			c4.5-5.6,3.9-13.7-1.5-18.5c-16.9-15.3-22.4-39.7-13.6-60.6c8.3-19.7,28.2-32.9,49.7-32.9l3,0.1c7,0.6,13.4-4.8,14.2-11.9
			C487.4,253.9,487.4,235.3,485.3,216.9z M244.3,325.4c-44.7,0-81-36.4-81-81c0-44.7,36.4-81,81-81c44.7,0,81,36.4,81,81
			C325.3,289.1,289,325.4,244.3,325.4z"/>
	</g>
</g>
</svg>
