<?xml version="1.0" encoding="utf-8"?>
<!-- Generator: Adobe Illustrator 19.2.0, SVG Export Plug-In . SVG Version: 6.00 Build 0)  -->
<svg version="1.1" id="Capa_1" xmlns="http://www.w3.org/2000/svg" xmlns:xlink="http://www.w3.org/1999/xlink" x="0px" y="0px"
	 viewBox="0 0 25 25" style="enable-background:new 0 0 25 25;" xml:space="preserve">
<style type="text/css">
	.st0{fill:#FFFFFF;}
</style>
<g>
	<path class="st0" d="M12.5,20.3c0,0.4-0.2,0.8-0.6,1c-0.2,0.1-0.3,0.1-0.5,0.1c-0.3,0-0.5-0.1-0.7-0.3L4.4,16H1.1
		C0.5,16,0,15.5,0,14.9v-4.5c0-0.6,0.5-1.1,1.1-1.1h3.3l6.2-5.1c0.3-0.3,0.8-0.3,1.2-0.2s0.6,0.6,0.6,1L12.5,20.3L12.5,20.3z"/>
</g>
<path class="st0" d="M24.4,17.1L24.4,17.1c-0.4,0.4-1.1,0.4-1.6,0l-7.2-7.2c-0.4-0.4-0.4-1.1,0-1.6l0,0c0.4-0.4,1.1-0.4,1.6,0
	l7.2,7.2C24.8,15.9,24.8,16.6,24.4,17.1z"/>
<path class="st0" d="M15.6,17.1L15.6,17.1c-0.4-0.4-0.4-1.1,0-1.6l7.2-7.2c0.4-0.4,1.1-0.4,1.6,0l0,0c0.4,0.4,0.4,1.1,0,1.6
	l-7.2,7.2C16.7,17.5,16,17.5,15.6,17.1z"/>
</svg>
