<?xml version="1.0" encoding="utf-8"?>
<!-- Generator: Adobe Illustrator 19.2.0, SVG Export Plug-In . SVG Version: 6.00 Build 0)  -->
<svg version="1.1" id="Lager_1" xmlns="http://www.w3.org/2000/svg" xmlns:xlink="http://www.w3.org/1999/xlink" x="0px" y="0px"
	 viewBox="0 0 124.9 147.7" style="enable-background:new 0 0 124.9 147.7;" xml:space="preserve">
<style type="text/css">
	.st0{fill:#FFFFFF;}
</style>
<g id="ISW82J.tif">
	<g>
		<path class="st0" d="M0.4,122.7c1.5-1.6,2.9-3.2,4.4-4.8c2.1-2.2,4.3-4.3,6.5-6.4c0.3-0.3,0.6-0.7,1.1-1.2c-1.1-1-2.1-2-3.1-3
			c-1.5-1.5-1.5-2.7,0-4.2c3.2-3.2,6.4-6.4,9.6-9.6c1.6-1.6,2.8-1.6,4.4-0.1c1,1,1.9,2,2.9,3.1c0.5-0.4,0.8-0.7,1-1
			C34,88.8,40.8,82,47.5,75.3c0.8-0.8,1.7-1.4,3-1c0.3,0.1,0.9-0.3,1.2-0.6c4.8-4.8,9.6-9.6,14.4-14.3c8.2-8.2,16.4-16.4,24.6-24.6
			c6.1-6.1,12.2-12.2,18.3-18.3c1.9-2,3.9-3.9,6.7-4.6c0.7,0,1.5,0,2.2,0c1.1,0.5,2.4,0.8,3.4,1.5c4.2,2.9,4.9,8.4,1.3,12.1
			c-3.2,3.4-6.6,6.7-9.9,10c-7.5,7.5-15.1,15.1-22.6,22.6c-6.8,6.8-13.6,13.6-20.4,20.4c-4,4-8,8-11.9,12c-0.3,0.3-0.5,0.9-0.4,1.2
			c0.2,1.1-0.2,2-1,2.7c-6.2,6.2-12.4,12.4-18.6,18.7c-7.2,7.2-14.4,14.4-21.6,21.6c-0.6,0.6-1.4,1.2-2.1,1.8c-0.4,0-0.8,0-1.2,0
			c-0.6-0.5-1.3-0.9-1.9-1.5c-2.1-2.1-4.3-4.2-6.3-6.3c-1.4-1.5-2.8-3.1-4.2-4.6C0.4,123.5,0.4,123.1,0.4,122.7z M24,119.3
			c1.1-1.1,2.3-2.3,3.5-3.5c-1.3-1.3-2.7-2.7-4.1-4.2c-1.2,1.3-2.3,2.5-3.3,3.7C21.3,116.6,22.7,118,24,119.3z M27.7,107.4
			c1.5,1.5,2.8,2.9,3.9,4.2c1.2-1.2,2.4-2.4,3.6-3.6c-1.3-1.3-2.6-2.6-3.7-3.8C30.2,105.3,28.9,106.4,27.7,107.4z M47.1,92.2
			c0-1.5-1-2.6-2.6-2.6c-1.5,0-2.6,1.1-2.6,2.6c0,1.5,1.2,2.7,2.7,2.7C46,94.9,47.1,93.7,47.1,92.2z"/>
	</g>
</g>
</svg>
