<?xml version="1.0" encoding="utf-8"?>
<!-- Generator: Adobe Illustrator 19.2.0, SVG Export Plug-In . SVG Version: 6.00 Build 0)  -->
<svg version="1.1" id="Capa_1" xmlns="http://www.w3.org/2000/svg" xmlns:xlink="http://www.w3.org/1999/xlink" x="0px" y="0px"
	 viewBox="0 0 25 24.1" style="enable-background:new 0 0 25 24.1;" xml:space="preserve">
<style type="text/css">
	.st0{fill:#FCFCFC;}
</style>
<g>
	<path class="st0" d="M20.5,10.6H20V7c0-3.8-3.2-7-7.2-7.1c-0.1,0-0.3,0-0.4,0C8.3,0,5.1,3.2,5.1,7v0.1c0,0.8,0.7,1.5,1.5,1.5
		c0.9,0,1.5-0.7,1.5-1.5V7c0-2.3,2-4.2,4.4-4.2s4.4,1.9,4.4,4.2v3.6H4.6c-0.7,0-1.3,0.7-1.3,1.6v10.4c0,0.9,0.6,1.6,1.3,1.6h15.9
		c0.7,0,1.3-0.7,1.3-1.6V12.2C21.8,11.3,21.2,10.6,20.5,10.6z M14,17.4v3.1c0,0.4-0.3,0.7-0.7,0.7h-1.6c-0.4,0-0.7-0.3-0.7-0.7v-3.1
		c-0.4-0.3-0.6-0.8-0.6-1.3c0-1,0.8-1.8,1.9-1.9c0.1,0,0.3,0,0.4,0c1,0,1.9,0.9,1.9,1.9C14.6,16.6,14.4,17,14,17.4z"/>
</g>
</svg>
