<?xml version="1.0" encoding="utf-8"?>
<!-- Generator: Adobe Illustrator 19.2.0, SVG Export Plug-In . SVG Version: 6.00 Build 0)  -->
<svg version="1.1" id="Lager_1" xmlns="http://www.w3.org/2000/svg" xmlns:xlink="http://www.w3.org/1999/xlink" x="0px" y="0px"
	 viewBox="0 0 216.2 196.9" style="enable-background:new 0 0 216.2 196.9;" xml:space="preserve">
<style type="text/css">
	.st0{fill:#FF8008;}
</style>
<circle class="st0" cx="63.6" cy="63.6" r="63.6"/>
<path class="st0" d="M63.6,133.3C28.5,133.3,0,161.7,0,196.9h127.2C127.2,161.7,98.7,133.3,63.6,133.3z"/>
<path class="st0" d="M119.2,127.3C119.2,127.3,118.9,127.2,119.2,127.3c-1.1-0.5-1.7-1.2-2-2l-0.3-0.8c-0.5-1.6,0-3.3,1.7-4.1
	c4-2,6.8-5,8.7-8.7c2-4,2.7-8.7,1.6-13.2c-0.3-1.5,0.5-3.1,2.1-3.6l0.8-0.3c0.8-0.3,1.7-0.1,2.8,0.4c0.8,0.4,1.3,1.3,1.6,2.1
	c1.3,6,0.5,12.3-2.4,18.2c-2.7,5.4-6.8,9.6-12,12C121.1,127.6,120,127.7,119.2,127.3z"/>
<path class="st0" d="M127.1,142.9c-0.8,0.3-1.9,0.4-2.7,0c0,0,0,0-0.3-0.1c-0.8-0.4-1.5-1.1-1.7-1.9l-0.4-0.5
	c-0.5-1.6,0.1-3.6,1.7-4.1c7.8-3.5,14-9.4,17.9-17.1c4-8,4.8-17,2.7-25.4c-0.4-1.9,0.4-3.5,2.4-4.1l0.8-0.3c0.8-0.3,1.7-0.1,2.5,0.3
	c0.8,0.4,1.5,1.1,1.6,2.1c2.9,10.2,1.9,21-2.9,30.6C144.1,131.7,136.5,138.9,127.1,142.9z"/>
<path class="st0" d="M200.3,196.9h-93.9c-8.7,0-15.9-7.2-15.9-15.9v0c0-8.7,7.2-15.9,15.9-15.9h93.9c8.7,0,15.9,7.2,15.9,15.9v0
	C216.2,189.7,209,196.9,200.3,196.9z"/>
<g>
	<path class="st0" d="M210,72.3h-35.7c-3.4,0-6.2,2.8-6.2,6.2V151c0,3.4,2.8,6.2,6.2,6.2H210c3.4,0,6.2-2.8,6.2-6.2V78.5
		C216.2,75.1,213.4,72.3,210,72.3z M183.3,76.1H201c0.4,0,0.8,0.7,0.8,1.5c0,0.8-0.4,1.5-0.8,1.5h-17.6c-0.4,0-0.8-0.7-0.8-1.5
		C182.5,76.8,182.9,76.1,183.3,76.1z M192.2,151.1c-2.2,0-3.9-1.8-3.9-3.9s1.8-3.9,3.9-3.9c2.2,0,3.9,1.8,3.9,3.9
		S194.3,151.1,192.2,151.1z M211.6,137.6h-38.8V82.8h38.8C211.6,82.8,211.6,137.6,211.6,137.6z"/>
</g>
</svg>
