<?xml version="1.0" encoding="utf-8"?>
<!-- Generator: Adobe Illustrator 19.2.0, SVG Export Plug-In . SVG Version: 6.00 Build 0)  -->
<svg version="1.1" id="Lager_1" xmlns="http://www.w3.org/2000/svg" xmlns:xlink="http://www.w3.org/1999/xlink" x="0px" y="0px"
	 viewBox="0 0 185 119.5" style="enable-background:new 0 0 185 119.5;" xml:space="preserve">
<style type="text/css">
	.st0{fill:#FF8008;}
	.st1{fill:#FFC737;}
</style>
<circle class="st0" cx="38.6" cy="38.6" r="38.6"/>
<path class="st0" d="M38.6,80.8C17.3,80.8,0,98,0,119.4h77.1C77.1,98,59.8,80.8,38.6,80.8z"/>
<g>
	<path class="st0" d="M109.6,0.7H84.8c-2.4,0-4.3,1.9-4.3,4.3v50.4c0,2.4,1.9,4.3,4.3,4.3h24.9c2.4,0,4.3-1.9,4.3-4.3V5
		C113.9,2.7,112,0.7,109.6,0.7z M91,3.4h12.3c0.3,0,0.6,0.5,0.6,1s-0.3,1-0.6,1H91.1c-0.3,0-0.6-0.5-0.6-1C90.4,3.8,90.7,3.4,91,3.4
		z M97.3,55.5c-1.5,0-2.7-1.2-2.7-2.7s1.2-2.7,2.7-2.7s2.7,1.2,2.7,2.7S98.7,55.5,97.3,55.5z M110.7,46.1h-27V8h27V46.1z"/>
</g>
<path class="st0" d="M77.6,119.5l25.8-41.9c3-4.8,1.5-11.3-3.4-14.3c-4.8-3-11.3-1.5-14.3,3.4L53.4,119c-0.1,0.2-0.2,0.4-0.3,0.6
	L77.6,119.5L77.6,119.5z"/>
<path class="st1" d="M143.5,51.2L143.5,51.2L143.5,51.2L143.5,51.2c-0.1,0.1-0.4,0.4-0.6,0.5l-0.1,0.1c-0.6,0.4-1.3,0.6-2.2,0.6
	c-0.1-0.1-0.1-0.1-0.1-0.1h-9.2c-0.6,0-1.1-0.1-1.6-0.3c-0.1-0.1-0.1-0.1-0.1-0.1c-0.2-0.1-0.4-0.2-0.6-0.3
	c-0.1-0.1-0.1-0.1-0.1-0.1c-1.1-0.7-1.9-2.1-1.9-3.5c0-0.8,0.3-1.6,0.7-2.3l0,0c0.1-0.2,0.3-0.4,0.5-0.6l0,0l1.7-1.7L118.5,32
	c-1.6-1.6-1.6-4.3,0-5.9l0,0c1.6-1.6,4.3-1.6,5.9,0l11.5,11.5l1.7-1.7l0,0c0.8-0.8,1.8-1.3,3-1.3l0,0c2.3,0,4.2,1.9,4.2,4.2v9.2
	c0.1,0.1,0.1,0.1,0.1,0.1c-0.1,0.8-0.3,1.6-0.7,2.3c0.1-0.1,0.1-0.1,0,0C144,50.5,143.8,50.7,143.5,51.2z"/>
</svg>
