<?xml version="1.0" encoding="utf-8"?>
<!-- Generator: Adobe Illustrator 19.2.0, SVG Export Plug-In . SVG Version: 6.00 Build 0)  -->
<svg version="1.1" id="Lager_1" xmlns="http://www.w3.org/2000/svg" xmlns:xlink="http://www.w3.org/1999/xlink" x="0px" y="0px"
	 viewBox="0 0 202.1 119.5" style="enable-background:new 0 0 202.1 119.5;" xml:space="preserve">
<style type="text/css">
	.st0{fill:#FF8008;}
	.st1{fill:#FFC737;}
</style>
<circle class="st0" cx="38.6" cy="38.6" r="38.6"/>
<path class="st0" d="M38.6,80.8C17.3,80.8,0,98,0,119.4h77.1C77.1,98,59.8,80.8,38.6,80.8z"/>
<g>
	<path class="st0" d="M174.1,89.6V64.8c0-2.4-1.9-4.3-4.3-4.3h-50.3c-2.4,0-4.3,1.9-4.3,4.3v24.7c0,2.4,1.9,4.3,4.3,4.3h50.3
		C172.2,94,174.1,92,174.1,89.6z M171.4,71.1v12.3c0,0.3-0.5,0.6-1,0.6s-1-0.3-1-0.6V71.3c0-0.3,0.5-0.6,1-0.6
		C171,70.5,171.5,70.8,171.4,71.1z M119.5,77.3c0-1.6,1.2-2.8,2.7-2.7c1.6,0,2.8,1.2,2.7,2.7s-1.2,2.8-2.7,2.7
		C120.6,80,119.4,78.7,119.5,77.3z M128.9,90.7V63.8h38v26.9H128.9z"/>
</g>
<path class="st0" d="M111,79.2c-4.1-4.1-10.9-4.1-15,0l-40.2,40.2h30L111,94.2C115.1,90.1,115.1,83.3,111,79.2z"/>
<path class="st1" d="M189.1,58.4L189.1,58.4L189.1,58.4L189.1,58.4c0.2,0,0.5,0,0.8,0.1h0.1c0.7,0.2,1.4,0.5,2,1.1
	c0,0.1,0,0.1,0,0.1l6.5,6.5c0.4,0.4,0.7,0.8,0.9,1.3c0,0.1,0,0.1,0,0.1c0.1,0.2,0.1,0.4,0.2,0.6c0,0.1,0,0.1,0,0.2
	c0.3,1.3-0.1,2.8-1.1,3.8c-0.6,0.6-1.3,0.9-2.1,1.1l0,0c-0.2,0.1-0.5,0.1-0.8,0.1l0,0h-2.4v16.2c0,2.3-1.9,4.2-4.2,4.2l0,0
	c-2.3,0-4.2-1.9-4.2-4.2V73.4h-2.4l0,0c-1.1,0-2.2-0.4-3-1.2l0,0c-1.6-1.6-1.6-4.3,0-5.9l6.5-6.5c0-0.1,0-0.1,0-0.1
	c0.6-0.5,1.3-0.9,2.1-1.1c-0.1,0-0.1,0,0,0C188.2,58.5,188.5,58.5,189.1,58.4z"/>
</svg>
