<?xml version="1.0" encoding="utf-8"?>
<!-- Generator: Adobe Illustrator 19.2.0, SVG Export Plug-In . SVG Version: 6.00 Build 0)  -->
<svg version="1.1" id="Lager_1" xmlns="http://www.w3.org/2000/svg" xmlns:xlink="http://www.w3.org/1999/xlink" x="0px" y="0px"
	 viewBox="0 0 202.1 119.5" style="enable-background:new 0 0 202.1 119.5;" xml:space="preserve">
<style type="text/css">
	.st0{fill:#FF8008;}
	.st1{fill:#FFC737;fill-opacity:0.5;}
</style>
<circle class="st0" cx="38.6" cy="38.6" r="38.6"/>
<path class="st0" d="M38.6,80.8C17.3,80.8,0,98,0,119.4h77.1C77.1,98,59.8,80.8,38.6,80.8z"/>
<g>
	<path class="st0" d="M174.1,51V26.2c0-2.4-1.9-4.3-4.3-4.3h-50.3c-2.4,0-4.3,1.9-4.3,4.3V51c0,2.4,1.9,4.3,4.3,4.3h50.3
		C172.2,55.4,174.1,53.4,174.1,51z M171.4,32.5v12.3c0,0.3-0.5,0.6-1,0.6s-1-0.3-1-0.6V32.7c0-0.3,0.5-0.6,1-0.6
		C171,31.9,171.5,32.2,171.4,32.5z M119.5,38.7c0-1.6,1.2-2.8,2.7-2.7c1.6,0,2.8,1.2,2.7,2.7c-0.1,1.5-1.2,2.8-2.7,2.7
		C120.6,41.4,119.4,40.1,119.5,38.7z M128.9,52.1V25.2h38v26.9H128.9z"/>
</g>
<path class="st0" d="M106.8,31.6L106.8,31.6c-5.4-2.3-11.7,0.3-14,5.8L63,108.8c-1.5,3.6-0.8,7.7,1.4,10.6h17c0.5-0.7,1-1.5,1.4-2.4
	l29.8-71.4C114.8,40.2,112.2,33.9,106.8,31.6z"/>
<path class="st1" d="M189,20.9L189,20.9L189,20.9L189,20.9c0.2,0,0.5,0,0.8,0.1h0.1c0.7,0.2,1.4,0.5,2,1.1c0,0.1,0,0.1,0,0.1
	l6.5,6.5c0.4,0.4,0.7,0.8,0.9,1.3c0,0.1,0,0.1,0,0.1c0.1,0.2,0.1,0.4,0.2,0.6c0,0.1,0,0.1,0,0.2c0.3,1.3-0.1,2.8-1.1,3.8
	c-0.6,0.6-1.3,0.9-2.1,1.1l0,0c-0.2,0.1-0.5,0.1-0.8,0.1l0,0h-2.4v16.2c0,2.3-1.9,4.2-4.2,4.2l0,0c-2.3,0-4.2-1.9-4.2-4.2V35.9h-2.4
	l0,0c-1.1,0-2.2-0.4-3-1.2l0,0c-1.6-1.6-1.6-4.3,0-5.9l6.5-6.5c0-0.1,0-0.1,0-0.1c0.6-0.5,1.3-0.9,2.1-1.1c-0.1,0-0.1,0,0,0
	C188.1,21,188.4,21,189,20.9z"/>
</svg>
