<?xml version="1.0" encoding="utf-8"?>
<!-- Generator: Adobe Illustrator 19.2.0, SVG Export Plug-In . SVG Version: 6.00 Build 0)  -->
<svg version="1.1" id="Lager_1" xmlns="http://www.w3.org/2000/svg" xmlns:xlink="http://www.w3.org/1999/xlink" x="0px" y="0px"
	 viewBox="0 0 185 119.5" style="enable-background:new 0 0 185 119.5;" xml:space="preserve">
<style type="text/css">
	.st0{fill:#FF8008;}
</style>
<circle class="st0" cx="38.6" cy="38.6" r="38.6"/>
<path class="st0" d="M38.6,80.8C17.3,80.8,0,98,0,119.4h77.1C77.1,98,59.8,80.8,38.6,80.8z"/>
<g>
	<path class="st0" d="M174.1,51V26.2c0-2.4-1.9-4.3-4.3-4.3h-50.3c-2.4,0-4.3,1.9-4.3,4.3V51c0,2.4,1.9,4.3,4.3,4.3l50.3,0
		C172.2,55.4,174.1,53.4,174.1,51z M171.4,32.5v12.3c0,0.3-0.5,0.6-1,0.6s-1-0.3-1-0.6V32.7c0-0.3,0.5-0.6,1-0.6
		C171,31.9,171.5,32.2,171.4,32.5z M119.5,38.7c0-1.6,1.2-2.8,2.7-2.7c1.6,0,2.8,1.2,2.7,2.7c-0.1,1.5-1.2,2.8-2.7,2.7
		C120.6,41.4,119.4,40.1,119.5,38.7z M128.9,52.1V25.2l38,0v26.9L128.9,52.1z"/>
</g>
<path class="st0" d="M106.8,31.6L106.8,31.6c-5.4-2.3-11.7,0.3-14,5.8l-29.8,71.4c-1.5,3.6-0.8,7.7,1.4,10.6h17
	c0.5-0.7,1-1.5,1.4-2.4l29.8-71.4C114.8,40.2,112.2,33.9,106.8,31.6z"/>
</svg>
